<svg xmlns="http://www.w3.org/2000/svg" xmlns:xlink="http://www.w3.org/1999/xlink"><defs>
<clipPath id="clip0">
<rect width="13" height="13" fill="white"/>
</clipPath>
</defs><symbol id="icon-filter" viewBox="0 0 13 13">
<g clip-path="url(#clip0)">
<path d="M4.75519 6.41691C4.95945 6.71251 4.89839 6.4662 4.89839 12.3582C4.89839 12.8855 5.49994 13.1873 5.92392 12.8719C7.73561 11.506 8.09758 11.3877 8.09758 10.7488C8.09758 6.4551 8.04754 6.69656 8.24079 6.41691L11.1828 2.41235H1.81322L4.75519 6.41691Z" fill="#FFC94F"/>
<path d="M12.2943 0.326523C12.1891 0.125176 11.983 0 11.756 0H1.24033C0.75016 0 0.461748 0.552932 0.742924 0.954687C0.745234 0.958547 0.711008 0.911701 1.25378 1.65039H11.7425C12.2051 1.02088 12.5142 0.748896 12.2943 0.326523Z" fill="#FFC94F"/>
</g>

</symbol><symbol id="icon-mail" viewBox="0 0 15 13">
<path fill-rule="evenodd" clip-rule="evenodd" d="M14.5832 2.25004C14.5832 1.47087 13.9457 0.833374 13.1665 0.833374H1.83317C1.054 0.833374 0.416504 1.47087 0.416504 2.25004V10.75C0.416504 11.5292 1.054 12.1667 1.83317 12.1667H13.1665C13.9457 12.1667 14.5832 11.5292 14.5832 10.75V2.25004ZM13.1665 2.25003L7.49982 5.7917L1.83316 2.25003H13.1665ZM13.1665 10.75H1.83316V3.6667L7.49982 7.20836L13.1665 3.6667V10.75Z" fill="#FFC94F"/>
</symbol><symbol id="icon-mark" viewBox="0 0 20 20">
<path d="M10 0C6.12297 0 2.96875 3.15422 2.96875 7.03125C2.96875 8.34117 3.3316 9.61953 4.01832 10.7286L9.59977 19.723C9.70668 19.8953 9.89504 20 10.0976 20C10.0992 20 10.1007 20 10.1023 20C10.3066 19.9984 10.4954 19.8905 10.6003 19.7152L16.0395 10.6336C16.6883 9.54797 17.0312 8.30231 17.0312 7.03125C17.0312 3.15422 13.877 0 10 0ZM15.0338 10.032L10.0887 18.2885L5.01434 10.1112C4.44273 9.18805 4.13281 8.12305 4.13281 7.03125C4.13281 3.80039 6.76914 1.16406 10 1.16406C13.2309 1.16406 15.8633 3.80039 15.8633 7.03125C15.8633 8.09066 15.5738 9.12844 15.0338 10.032Z" fill="#F3A800"/>
<path d="M10 3.51562C8.06148 3.51562 6.48438 5.09273 6.48438 7.03125C6.48438 8.95738 8.03582 10.5469 10 10.5469C11.9884 10.5469 13.5156 8.93621 13.5156 7.03125C13.5156 5.09273 11.9385 3.51562 10 3.51562ZM10 9.38281C8.7009 9.38281 7.64844 8.32684 7.64844 7.03125C7.64844 5.73891 8.70766 4.67969 10 4.67969C11.2923 4.67969 12.3477 5.73891 12.3477 7.03125C12.3477 8.30793 11.3197 9.38281 10 9.38281Z" fill="#F3A800"/>
</symbol><symbol id="icon-plus" viewBox="0 0 24 24">
<circle cx="12" cy="12" r="11" fill="#FFC94F"/>
<path d="M15.816 13.568H13.112V16.208H10.648V13.568H7.928V11.232H10.648V8.592H13.112V11.232H15.816V13.568Z" fill="black"/>
</symbol></svg>